<?xml version="1.0" encoding="utf-8"?>
<!-- Generator: Adobe Illustrator 19.0.0, SVG Export Plug-In . SVG Version: 6.00 Build 0)  -->
<svg version="1.1" id="Capa_1" xmlns="http://www.w3.org/2000/svg" xmlns:xlink="http://www.w3.org/1999/xlink" x="0px" y="0px"
	 viewBox="106 -9 512 319" style="enable-background:new 106 -9 512 319;" xml:space="preserve">
<style type="text/css">
	.st0{fill:#1BB5FF;}
</style>
<path class="st0" d="M509.3,77.5c-7.8,0-15.4,0.8-22.7,2.4l-20.4-68.8l48.7-3.3c5.7-0.4,10.9,3.4,12.4,8.9c0.9,3.4,0.2,7.1-1.9,10
	c-2.1,2.9-5.3,4.7-8.8,4.9l-11.8,0.8c-4.6,0.3-8.1,4.3-7.8,8.9s4.3,8.1,8.9,7.8l11.8-0.8c8.5-0.6,16.3-4.9,21.2-11.9
	c5-6.9,6.6-15.6,4.5-23.9c-3.3-13.3-15.8-22.3-29.6-21.4l-59.2,4c-2.5,0.2-4.9,1.5-6.3,3.6c-1.5,2.1-1.9,4.7-1.2,7.2l8.2,27.9h-162
	l-8.1-15.5h21c4.6,0,8.4-3.7,8.4-8.4s-3.7-8.4-8.4-8.4h-60.5c-4.6,0-8.4,3.7-8.4,8.4s3.7,8.4,8.4,8.4h20.7l12.3,23.6L254.4,85
	c-12.3-4.8-25.7-7.5-39.7-7.5c-60,0-108.8,48.8-108.8,108.8s49,108.8,109,108.8c57.2,0,104.2-44.3,108.5-100.4c0,0,40.8,0,40.9,0
	c2.9,0,5.6-1.5,7.1-3.9L460,49.1l10.5,35.6c-40.9,15.7-70,55.3-70,101.6c0,60,48.8,108.8,108.8,108.8s108.8-48.8,108.8-108.8
	S569.3,77.5,509.3,77.5z M214.9,278.4c-50.8,0-92.1-41.3-92.1-92.1s41.3-92.1,92.1-92.1c11,0,21.6,1.9,31.4,5.5l-40.5,72.1
	c-4.8,3-8,8.4-8,14.5c0,9.5,7.7,17.2,17.2,17.2c6.4,0,12-3.6,15-8.8h76.7C302.3,241.6,262.9,278.4,214.9,278.4z M229.9,178
	c-1.3-2.3-3.1-4.2-5.2-5.7l36.7-65.3c24.9,14.7,42.4,40.8,45.1,71H229.9z M323.4,178c-2.8-36.5-23.7-68-53.7-85.6l18.4-32.8
	L350.4,178H323.4z M364.9,169.5l-62.7-119h137.1L364.9,169.5z M509.3,278.4c-50.8,0-92.1-41.3-92.1-92.1c0-38.8,24.1-72,58-85.5
	l21.7,73.5c-3,3.1-4.9,7.3-4.9,12c0,9.5,7.7,17.2,17.2,17.2c9.5,0,17.2-7.7,17.2-17.2c0-8.2-5.7-15-13.4-16.7L491.2,96
	c5.8-1.2,11.8-1.8,18-1.8c50.8,0,92.1,41.3,92.1,92.1S560.1,278.4,509.3,278.4z"/>
</svg>
